<mxfile host="Electron" agent="Mozilla/5.0 (Windows NT 10.0; Win64; x64) AppleWebKit/537.36 (KHTML, like Gecko) draw.io/28.2.5 Chrome/138.0.7204.251 Electron/37.6.1 Safari/537.36" version="28.2.5">
  <diagram name="Page-1" id="u7snrLCw6jh4rdT6xf1G">
    <mxGraphModel dx="1579" dy="695" grid="1" gridSize="10" guides="1" tooltips="1" connect="1" arrows="1" fold="1" page="1" pageScale="1" pageWidth="850" pageHeight="1100" math="0" shadow="0">
      <root>
        <mxCell id="0" />
        <mxCell id="1" parent="0" />
        <mxCell id="t73FhbnmeTvEwMLNlvQj-1" value="Block" style="rounded=0;whiteSpace=wrap;html=1;" vertex="1" parent="1">
          <mxGeometry x="160" y="410" width="40" height="40" as="geometry" />
        </mxCell>
        <mxCell id="t73FhbnmeTvEwMLNlvQj-2" value="Block" style="rounded=0;whiteSpace=wrap;html=1;" vertex="1" parent="1">
          <mxGeometry x="160" y="360" width="40" height="40" as="geometry" />
        </mxCell>
        <mxCell id="t73FhbnmeTvEwMLNlvQj-3" value="Block" style="rounded=0;whiteSpace=wrap;html=1;" vertex="1" parent="1">
          <mxGeometry x="160" y="510" width="40" height="40" as="geometry" />
        </mxCell>
        <mxCell id="t73FhbnmeTvEwMLNlvQj-4" value="Block" style="rounded=0;whiteSpace=wrap;html=1;" vertex="1" parent="1">
          <mxGeometry x="160" y="460" width="40" height="40" as="geometry" />
        </mxCell>
        <mxCell id="t73FhbnmeTvEwMLNlvQj-6" value="Block" style="rounded=0;whiteSpace=wrap;html=1;" vertex="1" parent="1">
          <mxGeometry x="160" y="560" width="40" height="40" as="geometry" />
        </mxCell>
        <mxCell id="t73FhbnmeTvEwMLNlvQj-7" value="Gateway" style="rounded=0;whiteSpace=wrap;html=1;" vertex="1" parent="1">
          <mxGeometry x="280" y="360" width="80" height="40" as="geometry" />
        </mxCell>
        <mxCell id="t73FhbnmeTvEwMLNlvQj-8" value="" style="shape=flexArrow;endArrow=classic;startArrow=classic;html=1;rounded=0;" edge="1" parent="1">
          <mxGeometry width="100" height="100" relative="1" as="geometry">
            <mxPoint x="200" y="379.63" as="sourcePoint" />
            <mxPoint x="280" y="379.63" as="targetPoint" />
          </mxGeometry>
        </mxCell>
        <mxCell id="t73FhbnmeTvEwMLNlvQj-11" value="MQTT" style="edgeLabel;html=1;align=center;verticalAlign=middle;resizable=0;points=[];" vertex="1" connectable="0" parent="t73FhbnmeTvEwMLNlvQj-8">
          <mxGeometry x="-0.188" y="5" relative="1" as="geometry">
            <mxPoint x="7" y="5" as="offset" />
          </mxGeometry>
        </mxCell>
        <mxCell id="t73FhbnmeTvEwMLNlvQj-9" value="Gateway" style="rounded=0;whiteSpace=wrap;html=1;" vertex="1" parent="1">
          <mxGeometry x="280" y="410" width="80" height="40" as="geometry" />
        </mxCell>
        <mxCell id="t73FhbnmeTvEwMLNlvQj-10" value="" style="shape=flexArrow;endArrow=classic;startArrow=classic;html=1;rounded=0;" edge="1" parent="1">
          <mxGeometry width="100" height="100" relative="1" as="geometry">
            <mxPoint x="200" y="429.63" as="sourcePoint" />
            <mxPoint x="280" y="429.63" as="targetPoint" />
          </mxGeometry>
        </mxCell>
        <mxCell id="t73FhbnmeTvEwMLNlvQj-12" value="LORAWAN" style="edgeLabel;html=1;align=center;verticalAlign=middle;resizable=0;points=[];" vertex="1" connectable="0" parent="t73FhbnmeTvEwMLNlvQj-10">
          <mxGeometry x="-0.0398" y="-6" relative="1" as="geometry">
            <mxPoint y="-6" as="offset" />
          </mxGeometry>
        </mxCell>
        <mxCell id="t73FhbnmeTvEwMLNlvQj-14" value="Gateway" style="rounded=0;whiteSpace=wrap;html=1;" vertex="1" parent="1">
          <mxGeometry x="280" y="460" width="80" height="40" as="geometry" />
        </mxCell>
        <mxCell id="t73FhbnmeTvEwMLNlvQj-15" value="" style="shape=flexArrow;endArrow=classic;startArrow=classic;html=1;rounded=0;" edge="1" parent="1">
          <mxGeometry width="100" height="100" relative="1" as="geometry">
            <mxPoint x="200" y="479.63" as="sourcePoint" />
            <mxPoint x="280" y="479.63" as="targetPoint" />
          </mxGeometry>
        </mxCell>
        <mxCell id="t73FhbnmeTvEwMLNlvQj-16" value="HTTP" style="edgeLabel;html=1;align=center;verticalAlign=middle;resizable=0;points=[];" vertex="1" connectable="0" parent="t73FhbnmeTvEwMLNlvQj-15">
          <mxGeometry x="-0.0398" y="-6" relative="1" as="geometry">
            <mxPoint y="-6" as="offset" />
          </mxGeometry>
        </mxCell>
        <mxCell id="t73FhbnmeTvEwMLNlvQj-17" value="Gateway" style="rounded=0;whiteSpace=wrap;html=1;" vertex="1" parent="1">
          <mxGeometry x="280" y="510" width="80" height="40" as="geometry" />
        </mxCell>
        <mxCell id="t73FhbnmeTvEwMLNlvQj-18" value="" style="shape=flexArrow;endArrow=classic;startArrow=classic;html=1;rounded=0;" edge="1" parent="1">
          <mxGeometry width="100" height="100" relative="1" as="geometry">
            <mxPoint x="200" y="529.63" as="sourcePoint" />
            <mxPoint x="280" y="529.63" as="targetPoint" />
          </mxGeometry>
        </mxCell>
        <mxCell id="t73FhbnmeTvEwMLNlvQj-19" value="MODBUS" style="edgeLabel;html=1;align=center;verticalAlign=middle;resizable=0;points=[];" vertex="1" connectable="0" parent="t73FhbnmeTvEwMLNlvQj-18">
          <mxGeometry x="-0.0398" y="-6" relative="1" as="geometry">
            <mxPoint y="-6" as="offset" />
          </mxGeometry>
        </mxCell>
        <mxCell id="t73FhbnmeTvEwMLNlvQj-20" value="Gateway" style="rounded=0;whiteSpace=wrap;html=1;" vertex="1" parent="1">
          <mxGeometry x="280" y="560" width="80" height="40" as="geometry" />
        </mxCell>
        <mxCell id="t73FhbnmeTvEwMLNlvQj-21" value="" style="shape=flexArrow;endArrow=classic;startArrow=classic;html=1;rounded=0;" edge="1" parent="1">
          <mxGeometry width="100" height="100" relative="1" as="geometry">
            <mxPoint x="200" y="579.63" as="sourcePoint" />
            <mxPoint x="280" y="579.63" as="targetPoint" />
          </mxGeometry>
        </mxCell>
        <mxCell id="t73FhbnmeTvEwMLNlvQj-22" value="Serial" style="edgeLabel;html=1;align=center;verticalAlign=middle;resizable=0;points=[];" vertex="1" connectable="0" parent="t73FhbnmeTvEwMLNlvQj-21">
          <mxGeometry x="-0.0398" y="-6" relative="1" as="geometry">
            <mxPoint y="-6" as="offset" />
          </mxGeometry>
        </mxCell>
        <mxCell id="t73FhbnmeTvEwMLNlvQj-24" value="Data Aggregator&lt;div&gt;local&lt;/div&gt;" style="rounded=0;whiteSpace=wrap;html=1;" vertex="1" parent="1">
          <mxGeometry x="480" y="360" width="120" height="240" as="geometry" />
        </mxCell>
        <mxCell id="t73FhbnmeTvEwMLNlvQj-25" value="" style="shape=flexArrow;endArrow=classic;startArrow=classic;html=1;rounded=0;exitX=1;exitY=0.5;exitDx=0;exitDy=0;" edge="1" parent="1">
          <mxGeometry width="100" height="100" relative="1" as="geometry">
            <mxPoint x="360.0000000000001" y="379.63" as="sourcePoint" />
            <mxPoint x="480" y="379.63" as="targetPoint" />
          </mxGeometry>
        </mxCell>
        <mxCell id="t73FhbnmeTvEwMLNlvQj-26" value="CIL/GS" style="edgeLabel;html=1;align=center;verticalAlign=middle;resizable=0;points=[];" vertex="1" connectable="0" parent="t73FhbnmeTvEwMLNlvQj-25">
          <mxGeometry x="0.366" y="3" relative="1" as="geometry">
            <mxPoint x="-22" y="3" as="offset" />
          </mxGeometry>
        </mxCell>
        <mxCell id="t73FhbnmeTvEwMLNlvQj-35" value="&lt;div&gt;Local datastore&lt;/div&gt;" style="rounded=0;whiteSpace=wrap;html=1;" vertex="1" parent="1">
          <mxGeometry x="840" y="400" width="120" height="40" as="geometry" />
        </mxCell>
        <mxCell id="t73FhbnmeTvEwMLNlvQj-37" value="&lt;div&gt;Local GUI&lt;/div&gt;" style="rounded=0;whiteSpace=wrap;html=1;" vertex="1" parent="1">
          <mxGeometry x="1721.18" y="355" width="120" height="80" as="geometry" />
        </mxCell>
        <mxCell id="t73FhbnmeTvEwMLNlvQj-38" value="&lt;div&gt;Cloud datastore&lt;/div&gt;" style="rounded=0;whiteSpace=wrap;html=1;" vertex="1" parent="1">
          <mxGeometry x="840" y="520" width="120" height="40" as="geometry" />
        </mxCell>
        <mxCell id="t73FhbnmeTvEwMLNlvQj-39" value="&lt;div&gt;Cloud Userstore&lt;/div&gt;" style="rounded=0;whiteSpace=wrap;html=1;" vertex="1" parent="1">
          <mxGeometry x="1521.18" y="515" width="120" height="40" as="geometry" />
        </mxCell>
        <mxCell id="t73FhbnmeTvEwMLNlvQj-40" value="&lt;div&gt;Cloud GUI&lt;/div&gt;" style="rounded=0;whiteSpace=wrap;html=1;" vertex="1" parent="1">
          <mxGeometry x="1721.18" y="515" width="120" height="80" as="geometry" />
        </mxCell>
        <mxCell id="t73FhbnmeTvEwMLNlvQj-41" value="&lt;div&gt;Local automation server&lt;/div&gt;" style="rounded=0;whiteSpace=wrap;html=1;" vertex="1" parent="1">
          <mxGeometry x="1121.18" y="355" width="120" height="80" as="geometry" />
        </mxCell>
        <mxCell id="t73FhbnmeTvEwMLNlvQj-42" value="Client" style="rounded=0;whiteSpace=wrap;html=1;" vertex="1" parent="1">
          <mxGeometry x="1921.18" y="355" width="120" height="240" as="geometry" />
        </mxCell>
        <mxCell id="t73FhbnmeTvEwMLNlvQj-45" value="Authenticated API&lt;div&gt;local&lt;/div&gt;" style="rounded=0;whiteSpace=wrap;html=1;" vertex="1" parent="1">
          <mxGeometry x="1321.18" y="355" width="120" height="80" as="geometry" />
        </mxCell>
        <mxCell id="t73FhbnmeTvEwMLNlvQj-48" value="&lt;div&gt;Local Userstore&lt;/div&gt;" style="rounded=0;whiteSpace=wrap;html=1;" vertex="1" parent="1">
          <mxGeometry x="1521.18" y="395" width="120" height="40" as="geometry" />
        </mxCell>
        <mxCell id="t73FhbnmeTvEwMLNlvQj-54" value="&lt;div&gt;Cloud automation server&lt;/div&gt;" style="rounded=0;whiteSpace=wrap;html=1;" vertex="1" parent="1">
          <mxGeometry x="1121.18" y="515" width="120" height="80" as="geometry" />
        </mxCell>
        <mxCell id="t73FhbnmeTvEwMLNlvQj-58" value="Cloud values, f.ex&lt;div&gt;&lt;div&gt;weather, economy&lt;/div&gt;&lt;/div&gt;" style="ellipse;shape=cloud;whiteSpace=wrap;html=1;" vertex="1" parent="1">
          <mxGeometry x="1131.18" y="705" width="100" height="80" as="geometry" />
        </mxCell>
        <mxCell id="t73FhbnmeTvEwMLNlvQj-61" value="" style="shape=flexArrow;endArrow=classic;startArrow=classic;html=1;rounded=0;exitX=0.5;exitY=0;exitDx=0;exitDy=0;" edge="1" parent="1" source="t73FhbnmeTvEwMLNlvQj-54">
          <mxGeometry width="100" height="100" relative="1" as="geometry">
            <mxPoint x="1181.18" y="555" as="sourcePoint" />
            <mxPoint x="1180.75" y="435" as="targetPoint" />
          </mxGeometry>
        </mxCell>
        <mxCell id="t73FhbnmeTvEwMLNlvQj-62" value="SYNC/AU" style="edgeLabel;html=1;align=center;verticalAlign=middle;resizable=0;points=[];" vertex="1" connectable="0" parent="t73FhbnmeTvEwMLNlvQj-61">
          <mxGeometry x="-0.0261" relative="1" as="geometry">
            <mxPoint as="offset" />
          </mxGeometry>
        </mxCell>
        <mxCell id="t73FhbnmeTvEwMLNlvQj-65" value="CIL/US" style="shape=flexArrow;endArrow=classic;startArrow=classic;html=1;rounded=0;" edge="1" parent="1">
          <mxGeometry width="100" height="100" relative="1" as="geometry">
            <mxPoint x="1441.18" y="414.5" as="sourcePoint" />
            <mxPoint x="1521.18" y="414.5" as="targetPoint" />
          </mxGeometry>
        </mxCell>
        <mxCell id="t73FhbnmeTvEwMLNlvQj-67" value="CIL/US" style="shape=flexArrow;endArrow=classic;startArrow=classic;html=1;rounded=0;" edge="1" parent="1">
          <mxGeometry width="100" height="100" relative="1" as="geometry">
            <mxPoint x="1441.18" y="534.5" as="sourcePoint" />
            <mxPoint x="1521.18" y="534.5" as="targetPoint" />
          </mxGeometry>
        </mxCell>
        <mxCell id="t73FhbnmeTvEwMLNlvQj-69" value="" style="shape=flexArrow;endArrow=classic;startArrow=classic;html=1;rounded=0;" edge="1" parent="1">
          <mxGeometry width="100" height="100" relative="1" as="geometry">
            <mxPoint x="1841.18" y="555" as="sourcePoint" />
            <mxPoint x="1921.18" y="555" as="targetPoint" />
          </mxGeometry>
        </mxCell>
        <mxCell id="t73FhbnmeTvEwMLNlvQj-70" value="" style="shape=flexArrow;endArrow=classic;startArrow=classic;html=1;rounded=0;" edge="1" parent="1">
          <mxGeometry width="100" height="100" relative="1" as="geometry">
            <mxPoint x="1841.18" y="394" as="sourcePoint" />
            <mxPoint x="1921.18" y="394" as="targetPoint" />
          </mxGeometry>
        </mxCell>
        <mxCell id="t73FhbnmeTvEwMLNlvQj-71" value="CIL/RT &amp;amp; CIL/PL" style="shape=flexArrow;endArrow=classic;startArrow=classic;html=1;rounded=0;exitX=1;exitY=0.25;exitDx=0;exitDy=0;" edge="1" parent="1">
          <mxGeometry width="100" height="100" relative="1" as="geometry">
            <mxPoint x="1441.18" y="374.57" as="sourcePoint" />
            <mxPoint x="1721.18" y="374.57" as="targetPoint" />
          </mxGeometry>
        </mxCell>
        <mxCell id="t73FhbnmeTvEwMLNlvQj-72" value="CIL/RT &amp;amp; CIL/PL" style="shape=flexArrow;endArrow=classic;startArrow=classic;html=1;rounded=0;exitX=1;exitY=0.75;exitDx=0;exitDy=0;" edge="1" parent="1">
          <mxGeometry width="100" height="100" relative="1" as="geometry">
            <mxPoint x="1441.18" y="574.5699999999999" as="sourcePoint" />
            <mxPoint x="1721.18" y="574.5699999999999" as="targetPoint" />
          </mxGeometry>
        </mxCell>
        <mxCell id="t73FhbnmeTvEwMLNlvQj-75" value="SYNC/DB" style="shape=flexArrow;endArrow=classic;startArrow=classic;html=1;rounded=0;entryX=0.5;entryY=1;entryDx=0;entryDy=0;" edge="1" parent="1" source="t73FhbnmeTvEwMLNlvQj-38" target="t73FhbnmeTvEwMLNlvQj-35">
          <mxGeometry width="100" height="100" relative="1" as="geometry">
            <mxPoint x="790" y="790" as="sourcePoint" />
            <mxPoint x="890" y="690" as="targetPoint" />
          </mxGeometry>
        </mxCell>
        <mxCell id="t73FhbnmeTvEwMLNlvQj-76" value="CIL/DB" style="shape=flexArrow;endArrow=classic;html=1;rounded=0;" edge="1" parent="1">
          <mxGeometry width="50" height="50" relative="1" as="geometry">
            <mxPoint x="760" y="419.57" as="sourcePoint" />
            <mxPoint x="840" y="419.57" as="targetPoint" />
          </mxGeometry>
        </mxCell>
        <mxCell id="t73FhbnmeTvEwMLNlvQj-81" value="CIL/AS" style="shape=flexArrow;endArrow=classic;html=1;rounded=0;" edge="1" parent="1">
          <mxGeometry width="50" height="50" relative="1" as="geometry">
            <mxPoint x="960" y="539.5999999999999" as="sourcePoint" />
            <mxPoint x="1120" y="539.5999999999999" as="targetPoint" />
          </mxGeometry>
        </mxCell>
        <mxCell id="t73FhbnmeTvEwMLNlvQj-82" value="Authenticated API&lt;div&gt;cloud&lt;/div&gt;" style="rounded=0;whiteSpace=wrap;html=1;" vertex="1" parent="1">
          <mxGeometry x="1321.18" y="515" width="120" height="80" as="geometry" />
        </mxCell>
        <mxCell id="t73FhbnmeTvEwMLNlvQj-83" value="SYNC/US" style="shape=flexArrow;endArrow=classic;startArrow=classic;html=1;rounded=0;exitX=0.5;exitY=0;exitDx=0;exitDy=0;" edge="1" parent="1">
          <mxGeometry width="100" height="100" relative="1" as="geometry">
            <mxPoint x="1580.99" y="515" as="sourcePoint" />
            <mxPoint x="1580.5600000000002" y="435" as="targetPoint" />
          </mxGeometry>
        </mxCell>
        <mxCell id="t73FhbnmeTvEwMLNlvQj-84" value="&lt;div&gt;&lt;br&gt;&lt;/div&gt;&lt;div&gt;&lt;br&gt;&lt;/div&gt;" style="edgeLabel;html=1;align=center;verticalAlign=middle;resizable=0;points=[];" vertex="1" connectable="0" parent="t73FhbnmeTvEwMLNlvQj-83">
          <mxGeometry x="-0.0261" relative="1" as="geometry">
            <mxPoint as="offset" />
          </mxGeometry>
        </mxCell>
        <mxCell id="t73FhbnmeTvEwMLNlvQj-87" value="&lt;div&gt;Local datastore&lt;/div&gt;" style="rounded=0;whiteSpace=wrap;html=1;" vertex="1" parent="1">
          <mxGeometry x="840" y="280" width="120" height="40" as="geometry" />
        </mxCell>
        <mxCell id="t73FhbnmeTvEwMLNlvQj-88" value="&lt;div&gt;Cloud datastore&lt;/div&gt;" style="rounded=0;whiteSpace=wrap;html=1;" vertex="1" parent="1">
          <mxGeometry x="840" y="640" width="120" height="40" as="geometry" />
        </mxCell>
        <mxCell id="t73FhbnmeTvEwMLNlvQj-89" value="" style="endArrow=none;dashed=1;html=1;dashPattern=1 3;strokeWidth=2;rounded=0;entryX=0.5;entryY=1;entryDx=0;entryDy=0;exitX=0.5;exitY=0;exitDx=0;exitDy=0;" edge="1" parent="1">
          <mxGeometry width="50" height="50" relative="1" as="geometry">
            <mxPoint x="840" y="640" as="sourcePoint" />
            <mxPoint x="840" y="560" as="targetPoint" />
          </mxGeometry>
        </mxCell>
        <mxCell id="t73FhbnmeTvEwMLNlvQj-90" value="" style="endArrow=none;dashed=1;html=1;dashPattern=1 3;strokeWidth=2;rounded=0;entryX=0.5;entryY=1;entryDx=0;entryDy=0;exitX=0.5;exitY=0;exitDx=0;exitDy=0;" edge="1" parent="1">
          <mxGeometry width="50" height="50" relative="1" as="geometry">
            <mxPoint x="960" y="635" as="sourcePoint" />
            <mxPoint x="960" y="555" as="targetPoint" />
          </mxGeometry>
        </mxCell>
        <mxCell id="t73FhbnmeTvEwMLNlvQj-91" value="" style="endArrow=none;dashed=1;html=1;dashPattern=1 3;strokeWidth=2;rounded=0;entryX=0.5;entryY=1;entryDx=0;entryDy=0;exitX=0.5;exitY=0;exitDx=0;exitDy=0;" edge="1" parent="1">
          <mxGeometry width="50" height="50" relative="1" as="geometry">
            <mxPoint x="840" y="395" as="sourcePoint" />
            <mxPoint x="840" y="315" as="targetPoint" />
          </mxGeometry>
        </mxCell>
        <mxCell id="t73FhbnmeTvEwMLNlvQj-92" value="" style="endArrow=none;dashed=1;html=1;dashPattern=1 3;strokeWidth=2;rounded=0;entryX=0.5;entryY=1;entryDx=0;entryDy=0;exitX=0.5;exitY=0;exitDx=0;exitDy=0;" edge="1" parent="1">
          <mxGeometry width="50" height="50" relative="1" as="geometry">
            <mxPoint x="960" y="395" as="sourcePoint" />
            <mxPoint x="960" y="315" as="targetPoint" />
          </mxGeometry>
        </mxCell>
        <mxCell id="t73FhbnmeTvEwMLNlvQj-94" value="CIL/DS" style="shape=flexArrow;endArrow=classic;startArrow=classic;html=1;rounded=0;exitX=1;exitY=0.5;exitDx=0;exitDy=0;entryX=0.5;entryY=1;entryDx=0;entryDy=0;" edge="1" parent="1" target="t73FhbnmeTvEwMLNlvQj-82">
          <mxGeometry width="100" height="100" relative="1" as="geometry">
            <mxPoint x="960.0000000000001" y="660" as="sourcePoint" />
            <mxPoint x="1380.0000000000002" y="600" as="targetPoint" />
            <Array as="points">
              <mxPoint x="1380" y="660" />
            </Array>
          </mxGeometry>
        </mxCell>
        <mxCell id="t73FhbnmeTvEwMLNlvQj-95" value="" style="shape=flexArrow;endArrow=classic;startArrow=classic;html=1;rounded=0;exitX=1;exitY=0.5;exitDx=0;exitDy=0;entryX=0.5;entryY=0;entryDx=0;entryDy=0;" edge="1" parent="1" source="t73FhbnmeTvEwMLNlvQj-87" target="t73FhbnmeTvEwMLNlvQj-45">
          <mxGeometry width="100" height="100" relative="1" as="geometry">
            <mxPoint x="961.1800000000001" y="295" as="sourcePoint" />
            <mxPoint x="1201.18" y="245" as="targetPoint" />
            <Array as="points">
              <mxPoint x="1381" y="300" />
            </Array>
          </mxGeometry>
        </mxCell>
        <mxCell id="t73FhbnmeTvEwMLNlvQj-110" value="CIL/DS" style="edgeLabel;html=1;align=center;verticalAlign=middle;resizable=0;points=[];" vertex="1" connectable="0" parent="t73FhbnmeTvEwMLNlvQj-95">
          <mxGeometry x="0.0164" y="-1" relative="1" as="geometry">
            <mxPoint as="offset" />
          </mxGeometry>
        </mxCell>
        <mxCell id="t73FhbnmeTvEwMLNlvQj-99" value="" style="shape=flexArrow;endArrow=classic;startArrow=classic;html=1;rounded=0;" edge="1" parent="1">
          <mxGeometry width="100" height="100" relative="1" as="geometry">
            <mxPoint x="1180.41" y="715" as="sourcePoint" />
            <mxPoint x="1180.41" y="595" as="targetPoint" />
          </mxGeometry>
        </mxCell>
        <mxCell id="t73FhbnmeTvEwMLNlvQj-100" value="Automation API" style="rounded=0;whiteSpace=wrap;html=1;" vertex="1" parent="1">
          <mxGeometry x="680" y="360" width="80" height="240" as="geometry" />
        </mxCell>
        <mxCell id="t73FhbnmeTvEwMLNlvQj-102" value="INTERNAL" style="shape=flexArrow;endArrow=classic;startArrow=classic;html=1;rounded=0;" edge="1" parent="1">
          <mxGeometry width="100" height="100" relative="1" as="geometry">
            <mxPoint x="600" y="479.57" as="sourcePoint" />
            <mxPoint x="680" y="479.57" as="targetPoint" />
          </mxGeometry>
        </mxCell>
        <mxCell id="t73FhbnmeTvEwMLNlvQj-104" value="CIL/AS" style="shape=flexArrow;endArrow=classic;html=1;rounded=0;" edge="1" parent="1">
          <mxGeometry width="50" height="50" relative="1" as="geometry">
            <mxPoint x="960.0000000000001" y="419.58" as="sourcePoint" />
            <mxPoint x="1120" y="419.58" as="targetPoint" />
          </mxGeometry>
        </mxCell>
        <mxCell id="t73FhbnmeTvEwMLNlvQj-105" value="CIL/AU" style="shape=flexArrow;endArrow=classic;html=1;rounded=0;" edge="1" parent="1">
          <mxGeometry width="50" height="50" relative="1" as="geometry">
            <mxPoint x="1121.18" y="379.58" as="sourcePoint" />
            <mxPoint x="760" y="379.58" as="targetPoint" />
          </mxGeometry>
        </mxCell>
        <mxCell id="t73FhbnmeTvEwMLNlvQj-106" value="CIL/AU" style="shape=flexArrow;endArrow=classic;html=1;rounded=0;" edge="1" parent="1">
          <mxGeometry width="50" height="50" relative="1" as="geometry">
            <mxPoint x="1121.18" y="579.58" as="sourcePoint" />
            <mxPoint x="760" y="579.58" as="targetPoint" />
          </mxGeometry>
        </mxCell>
        <mxCell id="t73FhbnmeTvEwMLNlvQj-108" value="Edge device" style="swimlane;whiteSpace=wrap;html=1;" vertex="1" parent="1">
          <mxGeometry x="480" y="295" width="280" height="345" as="geometry" />
        </mxCell>
        <mxCell id="t73FhbnmeTvEwMLNlvQj-113" value="CIL/AUSYNC" style="shape=flexArrow;endArrow=classic;html=1;rounded=0;" edge="1" parent="1">
          <mxGeometry width="50" height="50" relative="1" as="geometry">
            <mxPoint x="1321.18" y="395" as="sourcePoint" />
            <mxPoint x="1241.18" y="395" as="targetPoint" />
          </mxGeometry>
        </mxCell>
        <mxCell id="t73FhbnmeTvEwMLNlvQj-114" value="CIL/AUSYNC" style="shape=flexArrow;endArrow=classic;html=1;rounded=0;" edge="1" parent="1">
          <mxGeometry width="50" height="50" relative="1" as="geometry">
            <mxPoint x="1321.18" y="560" as="sourcePoint" />
            <mxPoint x="1241.18" y="560" as="targetPoint" />
          </mxGeometry>
        </mxCell>
        <mxCell id="t73FhbnmeTvEwMLNlvQj-115" value="" style="shape=flexArrow;endArrow=classic;startArrow=classic;html=1;rounded=0;exitX=1;exitY=0.5;exitDx=0;exitDy=0;" edge="1" parent="1">
          <mxGeometry width="100" height="100" relative="1" as="geometry">
            <mxPoint x="360" y="429.69" as="sourcePoint" />
            <mxPoint x="479.9999999999999" y="429.69" as="targetPoint" />
          </mxGeometry>
        </mxCell>
        <mxCell id="t73FhbnmeTvEwMLNlvQj-116" value="CIL/GS" style="edgeLabel;html=1;align=center;verticalAlign=middle;resizable=0;points=[];" vertex="1" connectable="0" parent="t73FhbnmeTvEwMLNlvQj-115">
          <mxGeometry x="0.366" y="3" relative="1" as="geometry">
            <mxPoint x="-22" y="3" as="offset" />
          </mxGeometry>
        </mxCell>
        <mxCell id="t73FhbnmeTvEwMLNlvQj-117" value="" style="shape=flexArrow;endArrow=classic;startArrow=classic;html=1;rounded=0;exitX=1;exitY=0.5;exitDx=0;exitDy=0;" edge="1" parent="1">
          <mxGeometry width="100" height="100" relative="1" as="geometry">
            <mxPoint x="360" y="479.69" as="sourcePoint" />
            <mxPoint x="479.9999999999999" y="479.69" as="targetPoint" />
          </mxGeometry>
        </mxCell>
        <mxCell id="t73FhbnmeTvEwMLNlvQj-118" value="CIL/GS" style="edgeLabel;html=1;align=center;verticalAlign=middle;resizable=0;points=[];" vertex="1" connectable="0" parent="t73FhbnmeTvEwMLNlvQj-117">
          <mxGeometry x="0.366" y="3" relative="1" as="geometry">
            <mxPoint x="-22" y="3" as="offset" />
          </mxGeometry>
        </mxCell>
        <mxCell id="t73FhbnmeTvEwMLNlvQj-119" value="" style="shape=flexArrow;endArrow=classic;startArrow=classic;html=1;rounded=0;exitX=1;exitY=0.5;exitDx=0;exitDy=0;" edge="1" parent="1">
          <mxGeometry width="100" height="100" relative="1" as="geometry">
            <mxPoint x="360" y="529.69" as="sourcePoint" />
            <mxPoint x="479.9999999999999" y="529.69" as="targetPoint" />
          </mxGeometry>
        </mxCell>
        <mxCell id="t73FhbnmeTvEwMLNlvQj-120" value="CIL/GS" style="edgeLabel;html=1;align=center;verticalAlign=middle;resizable=0;points=[];" vertex="1" connectable="0" parent="t73FhbnmeTvEwMLNlvQj-119">
          <mxGeometry x="0.366" y="3" relative="1" as="geometry">
            <mxPoint x="-22" y="3" as="offset" />
          </mxGeometry>
        </mxCell>
        <mxCell id="t73FhbnmeTvEwMLNlvQj-121" value="" style="shape=flexArrow;endArrow=classic;startArrow=classic;html=1;rounded=0;exitX=1;exitY=0.5;exitDx=0;exitDy=0;" edge="1" parent="1">
          <mxGeometry width="100" height="100" relative="1" as="geometry">
            <mxPoint x="360" y="579.69" as="sourcePoint" />
            <mxPoint x="479.9999999999999" y="579.69" as="targetPoint" />
          </mxGeometry>
        </mxCell>
        <mxCell id="t73FhbnmeTvEwMLNlvQj-122" value="CIL/GS" style="edgeLabel;html=1;align=center;verticalAlign=middle;resizable=0;points=[];" vertex="1" connectable="0" parent="t73FhbnmeTvEwMLNlvQj-121">
          <mxGeometry x="0.366" y="3" relative="1" as="geometry">
            <mxPoint x="-22" y="3" as="offset" />
          </mxGeometry>
        </mxCell>
      </root>
    </mxGraphModel>
  </diagram>
</mxfile>
